<?xml version="1.0" encoding="UTF-8" standalone="no"?>
<svg width="163px" height="20px" viewBox="0 0 163 20" version="1.1" xmlns="http://www.w3.org/2000/svg" xmlns:xlink="http://www.w3.org/1999/xlink">
    <!-- Generator: Sketch 39 (31667) - http://www.bohemiancoding.com/sketch -->
    <title>Page 1</title>
    <desc>Created with Sketch.</desc>
    <defs>
        <polygon id="path-1" points="1.5227653e-21 0.100214104 1.5227653e-21 19.873258 17.3414333 19.873258 17.3414333 0.100214104 0 0.100214104"></polygon>
        <polygon id="path-3" points="0 19.8877637 162.741008 19.8877637 162.741008 0.0977534147 0 0.0977534147"></polygon>
    </defs>
    <g id="解决方案" stroke="none" stroke-width="1" fill="none" fill-rule="evenodd">
        <g id="技术开源解决方案" transform="translate(-247.000000, -25.000000)">
            <g id="banner">
                <g id="nav">
                    <g id="Page-1" transform="translate(247.000000, 25.000000)">
                        <polygon id="Fill-1" fill="#5D5D5D" points="44.7201647 0.114787228 44.7201647 19.8879435 57.0819267 19.8879435 57.0819267 16.7197216 48.0580506 16.7197216 48.0580506 0.114787228"></polygon>
                        <polygon id="Fill-2" fill="#5D5D5D" points="70.2707163 0.114787228 64.8677615 9.11023622 59.464919 0.114787228 55.8156829 0.114787228 63.17056 12.0804793 63.17056 19.8879435 66.5650754 19.8879435 66.5650754 12.0804793 73.91984 0.114787228"></polygon>
                        <polygon id="Fill-3" fill="#5D5D5D" points="97.1432648 0.114787228 97.1432648 8.68596393 87.3274737 8.68596393 87.3274737 0.114787228 83.9894755 0.114787228 83.9894755 19.8879435 87.3274737 19.8879435 87.3274737 11.7975562 97.1432648 11.7975562 97.1432648 19.8879435 100.481263 19.8879435 100.481263 0.114787228"></polygon>
                        <polygon id="Fill-4" fill="#5D5D5D" points="146.553166 0.114787228 140.584365 12.5330664 134.615789 0.114787228 129.410813 0.114787228 129.410813 19.8879435 132.748811 19.8879435 132.748811 4.44279157 139.622674 18.1623148 141.489652 18.1623148 148.391942 4.44279157 148.391942 19.8879435 151.729828 19.8879435 151.729828 0.114787228"></polygon>
                        <g id="Group-15" transform="translate(0.000000, 0.014607)">
                            <g id="Group-7">
                                <mask id="mask-2" fill="white">
                                    <use xlink:href="#path-1"></use>
                                </mask>
                                <g id="Clip-6"></g>
                                <path d="M15.2764767,1.82573041 C13.8996142,0.675610928 11.7121849,0.100214104 8.71373938,0.100214104 L-2.24720497e-05,0.100214104 L-2.24720497e-05,3.12697443 L5.26259441,3.12697443 L6.37462377,3.12697443 L8.65710982,3.12697443 C10.4675705,3.12697443 11.7971293,3.40978517 12.6456739,3.97563138 C13.4943308,4.54136522 13.9187155,5.50800042 13.9187155,6.87508754 C13.9187155,8.24262411 13.5836572,9.27948446 12.9144396,9.98667986 C12.2448849,10.6938752 10.9860007,11.0474729 9.13801168,11.0474729 L5.26259441,11.0474729 L5.26259441,7.00553779 L1.92470855,5.72238377 L1.92470855,19.873258 L5.26259441,19.873258 L5.26259441,14.0743456 L8.77036895,14.0743456 C11.6742072,14.0743456 13.8289396,13.5182748 15.2340045,12.4053465 C16.6387323,11.2928677 17.3414333,9.53903663 17.3414333,7.14385325 C17.3414333,4.74911931 16.6528897,2.97629934 15.2764767,1.82573041" id="Fill-5" fill="#5D5D5D" mask="url(#mask-2)"></path>
                            </g>
                            <mask id="mask-4" fill="white">
                                <use xlink:href="#path-3"></use>
                            </mask>
                            <g id="Clip-9"></g>
                            <polygon id="Fill-8" fill="#5D5D5D" mask="url(#mask-4)" points="154.222304 11.4425428 161.329202 11.4425428 161.329202 8.47196261 154.222304 8.47196261"></polygon>
                            <polygon id="Fill-10" fill="#5D5D5D" mask="url(#mask-4)" points="154.222304 3.23822231 162.40213 3.23822231 162.40213 0.0978657749 154.222304 0.0978657749"></polygon>
                            <polygon id="Fill-11" fill="#5D5D5D" mask="url(#mask-4)" points="154.222304 19.8732692 162.740896 19.8732692 162.740896 16.7329127 154.222304 16.7329127"></polygon>
                            <path d="M117.382705,9.89996022 C117.382705,11.3007554 116.24708,12.4363804 114.846285,12.4363804 C113.445377,12.4363804 112.309864,11.3007554 112.309864,9.89996022 C112.309864,8.49916502 113.445377,7.36354001 114.846285,7.36354001 C116.24708,7.36354001 117.382705,8.49916502 117.382705,9.89996022" id="Fill-12" fill="#00A4A1" mask="url(#mask-4)"></path>
                            <path d="M122.175869,2.5423753 C120.976986,1.37180625 119.605516,0.558542787 118.063934,0.0978657749 L118.063934,3.44384156 C118.673488,3.77170876 119.237874,4.20238559 119.755967,4.73845633 C121.089233,6.11891432 121.756204,7.79263255 121.756204,9.76006047 C121.756204,11.7279378 121.089233,13.4017684 119.755967,14.7816646 C118.422363,16.1621226 116.785724,16.8519022 114.846273,16.8519022 C112.906374,16.8519022 111.269734,16.1621226 109.93658,14.7816646 C108.602864,13.4017684 107.936231,11.7279378 107.936231,9.76006047 C107.936231,7.79263255 108.602864,6.11891432 109.93658,4.73845633 C110.454561,4.20227323 111.019059,3.7715964 111.628613,3.44361684 L111.628613,0.0977534147 C110.086806,0.558542787 108.715337,1.37180625 107.516677,2.5423753 C105.539587,4.47272434 104.551266,6.87858195 104.551266,9.76006047 C104.551266,12.641539 105.539587,15.047509 107.516677,16.9777456 C109.493319,18.9080947 111.936817,19.8732692 114.846273,19.8732692 C117.75573,19.8732692 120.198778,18.9080947 122.175869,16.9777456 C124.152511,15.047509 125.141281,12.641539 125.141281,9.76006047 C125.141281,6.87858195 124.152511,4.47272434 122.175869,2.5423753" id="Fill-13" fill="#5D5D5D" mask="url(#mask-4)"></path>
                            <path d="M35.3177694,5.0833461 C34.0132669,3.7334501 32.4123581,3.05838974 30.5152677,3.05838974 C28.6176155,3.05838974 27.0168191,3.7334501 25.7126537,5.0833461 C24.4081512,6.43357919 23.7561247,8.07078034 23.7561247,9.99539901 C23.7561247,11.9202424 24.4081512,13.5574436 25.7126537,14.9073396 C27.0168191,16.257685 28.6176155,16.9322959 30.5152677,16.9322959 C32.4123581,16.9322959 34.0132669,16.257685 35.3177694,14.9073396 C36.6219348,13.5574436 37.2744107,11.9202424 37.2744107,9.99539901 C37.2744107,8.07078034 36.6219348,6.43357919 35.3177694,5.0833461 M37.6848627,17.0554428 C35.7509181,18.9436567 33.3611281,19.8877075 30.5152677,19.8877075 C27.669295,19.8877075 25.2791679,18.9436567 23.3456727,17.0554428 C21.4117282,15.1673412 20.4449806,12.8139558 20.4449806,9.99539901 C20.4449806,7.17672986 21.4117282,4.82334449 23.3456727,2.93524291 C25.2791679,1.04702896 27.669295,0.102978166 30.5152677,0.102978166 C33.3611281,0.102978166 35.7509181,1.04702896 37.6848627,2.93524291 C39.6183578,4.82334449 40.5855548,7.17672986 40.5855548,9.99539901 C40.5855548,12.8139558 39.6183578,15.1673412 37.6848627,17.0554428" id="Fill-14" fill="#5D5D5D" mask="url(#mask-4)"></path>
                        </g>
                    </g>
                </g>
            </g>
        </g>
    </g>
</svg>